<?xml version="1.0" encoding="UTF-8" standalone="no"?>
<!-- Created with Inkscape (http://www.inkscape.org/) -->

<svg
   xmlns:dc="http://purl.org/dc/elements/1.1/"
   xmlns:cc="http://creativecommons.org/ns#"
   xmlns:rdf="http://www.w3.org/1999/02/22-rdf-syntax-ns#"
   xmlns:svg="http://www.w3.org/2000/svg"
   xmlns="http://www.w3.org/2000/svg"
   xmlns:sodipodi="http://sodipodi.sourceforge.net/DTD/sodipodi-0.dtd"
   xmlns:inkscape="http://www.inkscape.org/namespaces/inkscape"
   width="20"
   height="20"
   viewBox="0 0 5.2916665 5.2916668"
   version="1.1"
   id="svg8"
   inkscape:version="0.92.4 (5da689c313, 2019-01-14)"
   sodipodi:docname="logo.svg">
  <defs
     id="defs2" />
  <sodipodi:namedview
     id="base"
     pagecolor="#ffffff"
     bordercolor="#666666"
     borderopacity="1.0"
     inkscape:pageopacity="0.0"
     inkscape:pageshadow="2"
     inkscape:zoom="42.5"
     inkscape:cx="10"
     inkscape:cy="10"
     inkscape:document-units="px"
     inkscape:current-layer="layer1"
     showgrid="false"
     units="px"
     inkscape:window-width="1920"
     inkscape:window-height="1017"
     inkscape:window-x="1358"
     inkscape:window-y="-8"
     inkscape:window-maximized="1" />
  <metadata
     id="metadata5">
    <rdf:RDF>
      <cc:Work
         rdf:about="">
        <dc:format>image/svg+xml</dc:format>
        <dc:type
           rdf:resource="http://purl.org/dc/dcmitype/StillImage" />
        <dc:title></dc:title>
      </cc:Work>
    </rdf:RDF>
  </metadata>
  <g
     inkscape:label="Capa 1"
     inkscape:groupmode="layer"
     id="layer1"
     transform="translate(0,-291.70832)">
    <g
       id="g897"
       transform="matrix(0.0140625,0,0,0.0140625,0.00977235,292.64412)"
       style="stroke-width:71.1111145">
      <path
         style="fill:#fdfdfd;stroke-width:71.1111145"
         d="M 46.34211,121.60249 V -19.50863 H 187.45322 328.56434 V 121.60249 262.7136 H 187.45322 46.34211 Z"
         id="path879"
         inkscape:connector-curvature="0" />
      <path
         style="fill:#faafcc;stroke-width:71.1111145"
         d="M 46.34211,121.60249 V -19.50863 H 187.45322 328.56434 V 121.60249 262.7136 H 187.45322 46.34211 Z m 184.17825,105.85609 c 5.22322,-12.11422 9.49675,-22.15516 9.49675,-22.3132 0,-0.47544 -4.11057,-0.33466 -4.48586,0.15364 -0.18641,0.24253 -1.57725,3.4969 -3.09076,7.23194 -2.01325,4.96831 -2.90824,6.79097 -3.3346,6.79097 -0.42356,0 -1.40509,-1.95163 -3.5928,-7.14375 l -3.01002,-7.14375 -4.89613,-0.0986 c -2.69287,-0.0542 -5.09086,-0.0239 -5.32886,0.0674 -0.28955,0.11111 1.54679,4.50075 5.54976,13.2663 l 5.98249,13.10025 -2.98698,6.94064 c -1.64284,3.81736 -3.38432,7.8365 -3.86994,8.93144 -0.48563,1.09493 -0.78012,2.09362 -0.65444,2.21931 0.12569,0.12569 1.24015,0.18233 2.47658,0.12588 l 2.24805,-0.10265 z m -60.54186,9.01737 c 0.50579,-0.5058 0.92483,-1.44919 1.0577,-2.38125 0.12103,-0.84898 0.17343,-7.73485 0.11645,-15.30193 l -0.10359,-13.75834 h -2.11667 -2.11667 l -0.0956,7.39809 c -0.0526,4.06895 -0.23736,7.53987 -0.41065,7.71316 -0.34134,0.34133 -1.1079,-0.76375 -5.67431,-8.18006 -1.5952,-2.59076 -3.36486,-5.23952 -3.93259,-5.88613 -2.00595,-2.28464 -5.85719,-2.90943 -8.02437,-1.30178 -1.71691,1.27361 -1.80985,2.21475 -1.71025,17.31829 l 0.0922,13.98288 h 2.11667 2.11666 l 0.0937,-9.96598 c 0.0744,-7.91756 0.18839,-9.96597 0.55441,-9.96597 0.2534,0 2.83061,3.90957 5.72715,8.68792 5.22526,8.62002 7.35237,11.56533 8.7653,12.13691 1.36191,0.55094 2.68242,0.36623 3.54446,-0.49581 z m 141.81667,0 c 0.50579,-0.5058 0.92483,-1.44919 1.0577,-2.38125 0.12103,-0.84898 0.17343,-7.73485 0.11646,-15.30193 l -0.1036,-13.75834 h -2.11667 -2.11666 l -0.0956,7.39809 c -0.0526,4.06895 -0.23737,7.53987 -0.41066,7.71316 -0.34134,0.34133 -1.1079,-0.76375 -5.67431,-8.18006 -1.59519,-2.59076 -3.36486,-5.23952 -3.93259,-5.88613 -2.00594,-2.28464 -5.85718,-2.90943 -8.02437,-1.30178 -1.7169,1.27361 -1.80985,2.21475 -1.71025,17.31829 l 0.0922,13.98288 h 2.11667 2.11666 l 0.0937,-9.96598 c 0.0744,-7.91756 0.18839,-9.96597 0.55441,-9.96597 0.25339,0 2.83061,3.90957 5.72714,8.68792 5.22527,8.62002 7.35238,11.56533 8.76531,12.13691 1.36191,0.55094 2.68241,0.36623 3.54445,-0.49581 z M 119.28062,201.3462 c 0.0512,-20.20316 0.22541,-35.57375 0.40511,-35.75344 0.1735,-0.1735 7.66622,-0.35359 16.66704,-0.40059 19.75042,-0.10313 27.45548,-0.74864 40.57405,-3.39919 42.31178,-8.54889 63.06912,-33.43871 63.08531,-75.64466 0.003,-7.44028 -0.38452,-12.64315 -1.42893,-19.19213 -6.50633,-40.79779 -36.97185,-65.20732 -87.64248,-70.22075 -9.0784,-0.89823 -17.5007,-1.06848 -53.004859,-1.07147 l -37.482641,-0.003 v 120.41482 c 0,66.22815 0.10675,120.52157 0.23721,120.65203 0.13047,0.13047 13.34641,0.19661 29.368754,0.14699 l 29.131536,-0.0902 z m 0.52746,-59.66738 c -0.34929,-0.36586 -0.44097,-13.12678 -0.44097,-61.3787 0,-54.10279 0.0601,-60.96664 0.5368,-61.3623 1.03653,-0.86025 12.7531,0.21465 19.57154,1.79552 17.19682,3.98711 27.36021,12.89572 32.65749,28.62557 3.33437,9.90113 4.88437,24.62104 4.0667,38.6201 -0.46908,8.03088 -1.18872,13.08954 -2.71923,19.11466 -4.61948,18.18538 -14.96841,28.39589 -33.12302,32.68 -7.2144,1.70246 -19.64276,2.8547 -20.54931,1.90515 z m 16.66875,78.87783 v -15.52222 h -4.7625 -4.7625 l -0.0921,15.16945 c -0.0506,8.34319 -0.0142,15.37251 0.0811,15.6207 0.13129,0.34217 1.30487,0.42745 4.85457,0.35278 l 4.68143,-0.0985 z m 54.68056,-9.87777 v -25.4 h -4.7625 -4.7625 l -0.0913,25.04722 c -0.0502,13.77597 -0.0137,25.25029 0.0811,25.49848 0.1307,0.3422 1.30377,0.42746 4.85378,0.35278 l 4.68143,-0.0985 z m 20.01159,25.37915 c 0.10848,-0.10848 -2.02877,-4.19629 -4.74945,-9.08403 -2.72067,-4.88773 -5.0989,-9.2189 -5.28494,-9.6248 -0.27853,-0.60767 0.19879,-1.68242 2.70267,-6.08548 1.67251,-2.94111 3.135,-5.59259 3.24997,-5.8922 0.17942,-0.46757 -0.18095,-0.53003 -2.54415,-0.44091 l -2.75317,0.10382 -4.51631,7.76111 c -2.48397,4.26861 -4.5191,8.00246 -4.52251,8.29743 -0.005,0.45318 4.29254,8.5326 7.26791,13.66299 l 0.86952,1.49931 h 5.04161 c 2.77289,0 5.13037,-0.0888 5.23885,-0.19724 z m 52.30786,-1.74304 v -1.76389 l -2.57336,-0.20013 c -2.17983,-0.16952 -2.71932,-0.34606 -3.52778,-1.15435 l -0.95442,-0.95423 -0.17639,-22.48176 -0.17639,-22.48175 h -4.7625 -4.7625 v 22.75416 c 0,24.64453 -0.0175,24.40626 1.93215,26.27416 1.58483,1.51836 3.69733,1.91881 9.70952,1.84055 l 5.29167,-0.0689 z m 14.81666,-13.75834 v -15.52222 h -4.7625 -4.7625 l -0.0921,15.16945 c -0.0506,8.34319 -0.0141,15.37251 0.0811,15.6207 0.13129,0.34217 1.30487,0.42745 4.85458,0.35278 l 4.68142,-0.0985 z M 134.81699,195.38456 c 2.44929,-1.74405 2.72918,-5.48505 0.57179,-7.64244 -3.25227,-3.25227 -8.61333,-0.98626 -8.61333,3.64068 0,3.92489 4.79702,6.31206 8.04154,4.00176 z m 141.81667,0 c 2.44929,-1.74405 2.72918,-5.48505 0.57179,-7.64244 -3.25227,-3.25227 -8.61333,-0.98626 -8.61333,3.64068 0,3.92489 4.79702,6.31206 8.04154,4.00176 z"
         id="path877"
         inkscape:connector-curvature="0" />
      <path
         style="fill:#f88db6;stroke-width:71.1111145"
         d="M 46.34211,121.60249 V -19.50863 H 187.45322 328.56434 V 121.60249 262.7136 H 187.45322 46.34211 Z M 221.2164,249.57263 c 0.79813,-1.0485 19.19943,-44.35485 18.99048,-44.69294 -0.32737,-0.52971 -4.30455,-0.47451 -4.79506,0.0666 -0.21988,0.24253 -1.62685,3.45722 -3.12659,7.14375 -1.60552,3.94652 -2.91858,6.70278 -3.19317,6.70278 -0.2711,0 -1.61075,-2.72723 -3.19967,-6.51379 -1.50332,-3.58259 -2.91035,-6.79728 -3.12673,-7.14375 -0.34914,-0.55908 -0.98618,-0.62996 -5.66127,-0.62996 -2.89732,0 -5.35029,0.13337 -5.45104,0.29639 -0.10075,0.16302 2.51895,6.21879 5.82156,13.45728 l 6.00475,13.16088 -3.89637,8.98708 c -2.143,4.9429 -3.8102,9.1265 -3.7049,9.29689 0.30372,0.49142 4.95101,0.37723 5.33801,-0.13116 z M 169.931,236.94477 c 0.50455,-0.39687 1.0807,-1.30969 1.28033,-2.02847 0.22085,-0.79521 0.36373,-6.84918 0.36493,-15.46298 0.002,-11.79461 -0.0815,-14.2254 -0.49856,-14.57151 -0.28834,-0.2393 -1.29785,-0.36978 -2.38125,-0.30778 l -1.88073,0.10762 -0.17638,7.29164 c -0.15527,6.41837 -0.3512,8.21166 -0.83822,7.67202 -0.073,-0.0808 -1.8461,-2.91473 -3.94031,-6.29753 -2.09421,-3.3828 -4.34648,-6.74696 -5.00505,-7.47592 -2.92846,-3.24145 -7.88527,-3.11127 -9.6192,0.25263 -0.43921,0.85208 -0.54674,3.44636 -0.63251,15.25971 -0.0777,10.69992 0.002,14.36003 0.32099,14.7444 0.29994,0.3614 1.00245,0.48077 2.3964,0.40717 l 1.97206,-0.10412 0.19066,-9.70138 c 0.10487,-5.33577 0.22393,-9.74108 0.26459,-9.78959 0.36865,-0.43983 1.3595,0.97313 5.56622,7.9375 2.66629,4.41413 5.46455,8.84241 6.21835,9.8406 2.13643,2.82908 4.55928,3.67208 6.39768,2.22599 z m 141.81667,0 c 0.50455,-0.39687 1.0807,-1.30969 1.28033,-2.02847 0.22086,-0.79521 0.36373,-6.84918 0.36493,-15.46298 0.002,-11.79461 -0.0815,-14.2254 -0.49856,-14.57151 -0.28834,-0.2393 -1.29785,-0.36978 -2.38125,-0.30778 l -1.88072,0.10762 -0.17639,7.29164 c -0.15527,6.41837 -0.35119,8.21166 -0.83822,7.67202 -0.073,-0.0808 -1.8461,-2.91473 -3.94031,-6.29753 -2.09421,-3.3828 -4.34648,-6.74696 -5.00505,-7.47592 -2.92846,-3.24145 -7.88527,-3.11127 -9.6192,0.25263 -0.43921,0.85208 -0.54674,3.44636 -0.63251,15.25971 -0.0777,10.69992 0.002,14.36003 0.32099,14.7444 0.29994,0.3614 1.00245,0.48077 2.3964,0.40717 l 1.97206,-0.10412 0.19066,-9.70138 c 0.10487,-5.33577 0.22393,-9.74108 0.26459,-9.78959 0.36865,-0.43983 1.3595,0.97313 5.56622,7.9375 2.66629,4.41413 5.46455,8.84241 6.21836,9.8406 2.13642,2.82908 4.55927,3.67208 6.39767,2.22599 z m -192.02778,-35.58069 0.17639,-35.77314 16.05139,-0.0656 c 16.1221,-0.0659 20.06276,-0.27481 30.25484,-1.60403 19.8364,-2.58703 35.96404,-8.37156 47.88544,-17.17519 4.17405,-3.08242 10.3443,-9.34634 13.31326,-13.51536 4.63834,-6.51317 8.71731,-15.91124 10.65847,-24.55742 1.75881,-7.83401 2.11153,-11.57618 2.12305,-22.52502 0.0117,-11.10684 -0.2741,-14.46895 -1.93424,-22.75417 C 233.92677,41.8258 223.16842,25.56676 205.4322,13.79909 190.72659,4.04218 172.66139,-1.53197 148.1185,-3.88545 142.53175,-4.42118 136.87096,-4.49564 101.02267,-4.50497 l -40.74584,-0.0106 -0.0903,120.47361 c -0.0497,66.26049 -0.0146,120.67296 0.0779,120.9166 0.13349,0.3516 6.26559,0.42438 29.723624,0.35278 l 29.555436,-0.0902 z m 0.16296,-60.09423 c -0.0922,-0.24254 -0.12692,-27.82535 -0.0771,-61.29514 l 0.0906,-60.85417 4.17382,0.062 c 12.63781,0.18768 25.29177,3.79196 33.24978,9.47068 11.10821,7.92666 16.96884,21.52024 18.4761,42.85484 1.12851,15.97363 -0.72969,32.09478 -4.94091,42.86568 -6.29834,16.10908 -19.15871,24.47865 -41.20899,26.81894 -6.06289,0.64348 -9.53746,0.67095 -9.76323,0.0772 z m 16.69982,94.91486 c 0.66718,-0.66718 0.60296,-30.73842 -0.0668,-31.2943 -0.32888,-0.27295 -1.98307,-0.37422 -5.02709,-0.30778 l -4.53691,0.099 -0.092,15.52223 c -0.0506,8.53722 -0.0159,15.72066 0.0771,15.96319 0.23344,0.60857 9.03871,0.62467 9.64574,0.0176 z m 54.75111,-7.16139 c 0.097,-4.07458 0.12883,-15.70733 0.0707,-25.85055 l -0.10569,-18.44222 -5.00958,0.0978 -5.00959,0.0978 -0.0905,25.36102 c -0.0669,18.74129 0.0156,25.48888 0.31598,25.85086 0.3171,0.38208 1.42342,0.46825 5.02943,0.39175 l 4.62291,-0.0981 z m 20.2599,7.27211 c 0.10626,-0.17193 -2.04808,-4.33912 -4.78742,-9.26041 -2.73935,-4.9213 -5.13228,-9.27867 -5.31764,-9.68306 -0.27726,-0.6049 0.2357,-1.7451 2.89322,-6.43103 1.77662,-3.13267 3.13011,-5.85775 3.00776,-6.05572 -0.35966,-0.58195 -5.30937,-0.45239 -5.81106,0.1521 -0.23373,0.28163 -2.46432,4.01679 -4.95686,8.30036 l -4.53189,7.78831 3.53844,6.42811 c 1.94614,3.53547 3.92141,7.02343 4.3895,7.75104 l 0.85106,1.32291 h 5.26584 c 2.89622,0 5.35279,-0.14067 5.45905,-0.31261 z m 51.88316,-1.98044 v -2.11667 l -2.29306,-0.18296 c -2.53915,-0.20261 -3.64024,-0.67577 -4.31344,-1.8536 -0.34744,-0.60786 -0.47237,-5.83734 -0.55207,-23.10845 l -0.10302,-22.32279 -5.01226,0.0978 -5.01226,0.0978 -0.1036,21.69583 c -0.10645,22.29487 0.0108,24.75393 1.28394,26.92367 1.39901,2.38427 3.73408,3.0198 10.8141,2.94326 l 5.29167,-0.0572 z m 14.9225,1.86972 c 0.66718,-0.66718 0.60296,-30.73842 -0.0668,-31.2943 -0.32888,-0.27295 -1.98306,-0.37422 -5.02708,-0.30778 l -4.53692,0.099 -0.092,15.52223 c -0.0506,8.53722 -0.0159,15.72066 0.0771,15.96319 0.23344,0.60857 9.03871,0.62467 9.64574,0.0176 z M 134.88933,195.75365 c 1.3607,-0.97764 2.59312,-3.70772 2.32322,-5.14642 -0.54889,-2.92582 -3.06987,-4.95927 -5.8031,-4.68083 -3.67158,0.37402 -6.1032,4.47374 -4.49113,7.57208 0.61999,1.19161 1.88145,2.38473 3.03231,2.86804 1.18683,0.49841 3.8524,0.16763 4.9387,-0.61287 z m 141.81667,0 c 1.3607,-0.97764 2.59312,-3.70772 2.32322,-5.14642 -0.54889,-2.92582 -3.06987,-4.95927 -5.8031,-4.68083 -3.67158,0.37402 -6.1032,4.47374 -4.49113,7.57208 0.61999,1.19161 1.88145,2.38473 3.03231,2.86804 1.18683,0.49841 3.8524,0.16763 4.9387,-0.61287 z"
         id="path875"
         inkscape:connector-curvature="0" />
      <path
         style="fill:#f776a8;stroke-width:71.1111145"
         d="M 46.34211,121.60249 V -19.50863 H 187.45322 328.56434 V 121.60249 262.7136 H 187.45322 46.34211 Z M 223.214,245.51568 c 6.70732,-15.23288 17.42949,-40.50035 17.28524,-40.73375 -0.29088,-0.47065 -4.99522,-0.32514 -5.312,0.16431 -0.15697,0.24253 -1.4894,3.37784 -2.96095,6.96736 -1.55036,3.78174 -2.86982,6.52639 -3.13749,6.52639 -0.26621,0 -1.68558,-2.91478 -3.34985,-6.87917 l -2.88791,-6.87917 -5.70446,-0.0969 c -4.42587,-0.0752 -5.70447,0.003 -5.70447,0.3509 0,0.2463 2.61938,6.19057 5.82084,13.20948 3.20146,7.01891 5.82083,12.99237 5.82083,13.27434 0,0.28198 -1.66687,4.37062 -3.70417,9.08586 -2.03729,4.71525 -3.70416,8.78358 -3.70416,9.04074 0,0.34866 0.7067,0.46756 2.77902,0.46756 h 2.77902 z m -52.87784,-8.69183 c 0.46339,-0.46339 0.93837,-1.37621 1.05551,-2.02847 0.11714,-0.65227 0.16735,-7.6947 0.11157,-15.64984 l -0.1014,-14.46389 h -2.46945 -2.46944 l -0.0953,7.32014 c -0.0524,4.02608 -0.22373,7.32014 -0.38065,7.32014 -0.15691,0 -1.76258,-2.42094 -3.56815,-5.37986 -4.42837,-7.25708 -5.65563,-8.84953 -7.51307,-9.7487 -2.00813,-0.97212 -4.62676,-0.98559 -6.19109,-0.0318 -2.17035,1.32322 -2.20144,1.58561 -2.09936,17.71608 l 0.0921,14.55402 h 2.46945 2.46944 l 0.0939,-9.64068 c 0.0653,-6.70476 0.20988,-9.60203 0.47468,-9.51377 0.20943,0.0698 2.74976,4.01125 5.6452,8.75875 6.1182,10.03172 7.4941,11.63043 10.00948,11.63043 1.24172,0 1.82244,-0.19836 2.46661,-0.84253 z m 141.81667,0 c 0.46339,-0.46339 0.93837,-1.37621 1.05551,-2.02847 0.11714,-0.65227 0.16735,-7.6947 0.11157,-15.64984 l -0.1014,-14.46389 h -2.46945 -2.46944 l -0.0954,7.32014 c -0.0524,4.02608 -0.22373,7.32014 -0.38064,7.32014 -0.15691,0 -1.76258,-2.42094 -3.56816,-5.37986 -4.42836,-7.25708 -5.65563,-8.84953 -7.51307,-9.7487 -2.00812,-0.97212 -4.62675,-0.98559 -6.19109,-0.0318 -2.17034,1.32322 -2.20144,1.58561 -2.09935,17.71608 l 0.0921,14.55402 h 2.46945 2.46944 l 0.0939,-9.64068 c 0.0653,-6.70476 0.20988,-9.60203 0.47469,-9.51377 0.20942,0.0698 2.74976,4.01125 5.64519,8.75875 6.1182,10.03172 7.4941,11.63043 10.00949,11.63043 1.24171,0 1.82243,-0.19836 2.4666,-0.84253 z M 119.71989,201.70386 c 0,-24.42567 0.11601,-35.68143 0.36937,-35.83802 0.20315,-0.12555 6.51347,-0.20976 14.02292,-0.18713 13.7743,0.0415 20.28235,-0.23449 28.99938,-1.22985 45.89598,-5.24062 70.99822,-25.84134 76.36265,-62.6687 1.29956,-8.92165 1.3686,-22.41308 0.15995,-31.25822 C 236.07454,44.47186 224.30193,25.40789 203.82857,12.54013 188.59755,2.96724 168.66635,-2.62727 143.70878,-4.33498 140.80961,-4.53335 121.5906,-4.6865 99.346973,-4.68847 l -39.246533,-0.003 v 121.00278 121.00278 h 29.809727 29.809723 z m 0.42333,-60.41637 c -0.32597,-0.32597 -0.42333,-14.35238 -0.42333,-60.98737 0,-51.75503 0.0725,-60.62421 0.49862,-60.97784 0.37684,-0.31275 1.73375,-0.32264 5.55625,-0.0405 29.99809,2.21435 44.29602,14.52827 48.762,41.99568 1.07851,6.63323 1.36917,12.14693 1.17654,22.31842 -0.28587,15.09455 -1.99513,24.4176 -6.12514,33.4092 -6.89147,15.00367 -20.50942,22.65059 -43.34188,24.33787 -6.06365,0.4481 -5.59522,0.45236 -6.10306,-0.0555 z m 16.68639,79.26916 v -15.875 h -5.11528 -5.11527 l -0.092,15.52223 c -0.0506,8.53722 -0.0142,15.72503 0.0809,15.97292 0.13161,0.34312 1.37461,0.42733 5.2073,0.35278 l 5.03442,-0.0979 z m 54.77599,8.52788 c 0.0604,-4.65253 0.2236,-7.3044 0.44488,-7.23064 0.19219,0.0641 2.15624,3.37026 4.36457,7.34712 l 4.01513,7.23064 5.68236,0.0969 c 4.29175,0.0732 5.68235,-0.008 5.68235,-0.33383 0,-0.23691 -2.30187,-4.59411 -5.11528,-9.68267 -2.8134,-5.08855 -5.11527,-9.48571 -5.11527,-9.77148 0,-0.28576 1.41844,-3.03655 3.1521,-6.11287 1.73367,-3.07632 3.02859,-5.71919 2.87762,-5.87305 -0.15097,-0.15386 -1.58863,-0.23324 -3.19479,-0.17639 l -2.9203,0.10335 -4.14431,7.13496 c -2.27937,3.92422 -4.44298,7.57547 -4.80801,8.11388 -0.65489,0.96595 -0.66605,0.7401 -0.84009,-17.01272 l -0.17639,-17.99167 -5.20347,-0.0976 -5.20348,-0.0976 v 25.70341 c 0,14.13688 0.11001,25.81342 0.24446,25.94787 0.13445,0.13445 2.47602,0.20059 5.20347,0.14699 l 4.95902,-0.0975 z m 72.22402,5.23046 v -2.11667 l -2.60584,-0.2326 c -2.16268,-0.19304 -2.76262,-0.38935 -3.52777,-1.15435 l -0.92195,-0.92175 -0.17639,-22.48176 -0.17639,-22.48176 -5.20347,-0.0976 -5.20347,-0.0976 v 22.69957 c 0,24.82939 0.0306,25.23878 2.03068,27.15497 1.7858,1.7109 3.20267,1.98795 9.78737,1.9138 l 5.99723,-0.0675 z m 14.81666,-13.75834 v -15.875 h -5.11528 -5.11527 l -0.092,15.52223 c -0.0506,8.53722 -0.0142,15.72503 0.0809,15.97292 0.13161,0.34312 1.37461,0.42733 5.2073,0.35278 l 5.03442,-0.0979 z m -143.6766,-24.71173 c 4.39098,-3.24882 2.19175,-10.04006 -3.24984,-10.03556 -3.09786,0.002 -5.29453,2.27069 -5.29453,5.46674 0,2.08959 0.8767,3.73361 2.55177,4.78517 1.47318,0.92483 4.60294,0.81183 5.9926,-0.21635 z m 141.81667,0 c 4.39098,-3.24882 2.19176,-10.04006 -3.24984,-10.03556 -3.09786,0.002 -5.29453,2.27069 -5.29453,5.46674 0,2.08959 0.8767,3.73361 2.55177,4.78517 1.47318,0.92483 4.60294,0.81183 5.9926,-0.21635 z"
         id="path873"
         inkscape:connector-curvature="0" />
      <path
         style="fill:#f65190;stroke-width:71.1111145"
         d="M 46.34211,121.60249 V -19.50863 H 187.45322 328.56434 V 121.60249 262.7136 H 187.45322 46.34211 Z m 174.8974,128.13872 c 0.58793,-0.58793 19.48316,-44.04076 19.48316,-44.80488 0,-0.19557 -0.25111,-0.45194 -0.55802,-0.56971 -0.99146,-0.38046 -4.22977,-0.22722 -4.79351,0.22684 -0.30112,0.24253 -1.79028,3.50086 -3.30924,7.24072 -2.15102,5.29607 -2.85272,6.7003 -3.17312,6.35 -0.22625,-0.24736 -1.5656,-3.22787 -2.97631,-6.62336 -1.41072,-3.39549 -2.88,-6.45142 -3.26506,-6.79097 -0.59407,-0.52384 -1.43214,-0.61736 -5.53251,-0.61736 -3.31673,0 -5.01702,0.1383 -5.42109,0.44097 -0.53166,0.39823 -0.005,1.71879 5.43139,13.62345 l 6.02011,13.18247 -3.9621,9.16671 c -3.18133,7.3603 -3.8652,9.22807 -3.47035,9.4781 0.27046,0.17126 1.48394,0.31382 2.69662,0.31679 1.64519,0.004 2.36355,-0.15329 2.83003,-0.61977 z m -52.0431,-12.09323 c 2.54852,-0.70776 2.54392,-0.67754 2.66709,-17.4864 0.12393,-16.91111 0.27893,-16.00909 -2.75107,-16.00909 -2.99609,0 -2.82587,-0.44727 -2.82587,7.42525 0,3.84835 -0.14238,7.08499 -0.3164,7.19254 -0.17402,0.10755 -1.88058,-2.36277 -3.79236,-5.4896 -5.22044,-8.53834 -6.66143,-9.92553 -10.35513,-9.96851 -2.37434,-0.0276 -3.96456,0.82204 -4.845,2.58871 -0.55903,1.12175 -0.63398,2.723 -0.72935,15.58262 -0.12099,16.31504 -0.26975,15.47732 2.74847,15.47732 3.04013,0 2.82588,0.75401 2.82588,-9.94492 0,-7.295 0.0998,-9.4834 0.42737,-9.3742 0.23505,0.0784 2.6781,3.8619 5.42898,8.40787 5.02296,8.30068 7.41443,11.41575 8.99239,11.71326 0.46743,0.0881 0.92924,0.18098 1.02626,0.20632 0.097,0.0253 0.77145,-0.11919 1.49874,-0.32117 z m 141.81667,0 c 2.54852,-0.70776 2.54392,-0.67754 2.66709,-17.4864 0.12393,-16.91111 0.27893,-16.00909 -2.75106,-16.00909 -2.9961,0 -2.82588,-0.44727 -2.82588,7.42525 0,3.84835 -0.14238,7.08499 -0.3164,7.19254 -0.17402,0.10755 -1.88058,-2.36277 -3.79236,-5.4896 -5.22044,-8.53834 -6.66143,-9.92553 -10.35513,-9.96851 -2.37434,-0.0276 -3.96456,0.82204 -4.84499,2.58871 -0.55904,1.12175 -0.63399,2.723 -0.72936,15.58262 -0.12099,16.31504 -0.26975,15.47732 2.74847,15.47732 3.04014,0 2.82588,0.75401 2.82588,-9.94492 0,-7.295 0.0998,-9.4834 0.42737,-9.3742 0.23505,0.0784 2.6781,3.8619 5.42898,8.40787 5.02296,8.30068 7.41443,11.41575 8.99239,11.71326 0.46743,0.0881 0.92925,0.18098 1.02626,0.20632 0.097,0.0253 0.77145,-0.11919 1.49874,-0.32117 z M 119.3903,237.30119 c 0.66772,-0.35735 0.68237,-1.12965 0.68237,-35.972 v -35.60681 l 10.31875,0.21283 c 11.50597,0.23731 22.7099,-0.21462 32.41937,-1.3077 43.36108,-4.88155 68.26304,-23.37554 75.58024,-56.13133 2.70255,-12.09812 3.04294,-27.72414 0.89794,-41.22147 C 234.16335,35.022 214.45815,12.83463 181.50827,2.21565 169.45471,-1.66893 156.26373,-3.84161 139.64549,-4.67954 129.08543,-5.212 60.71158,-5.16199 60.171,-4.62144 c -0.32761,0.32761 -0.42333,27.68524 -0.42333,120.98525 0,114.44871 0.0313,120.58015 0.61736,120.9215 0.86144,0.50174 58.08866,0.51711 59.02527,0.0158 z M 120.07267,80.27422 V 19.19039 l 4.49791,0.20947 c 12.00849,0.55921 22.4846,3.3004 30.16746,7.89362 3.61232,2.15964 8.91457,7.18136 11.21656,10.62311 4.62162,6.90991 7.49268,15.62773 8.98048,27.26883 0.78374,6.13225 1.04167,17.56954 0.55135,24.44838 -1.73986,24.40914 -8.78729,37.94864 -23.66376,45.46276 -6.96651,3.51878 -19.73129,6.26148 -29.14155,6.26148 h -2.60845 z m 16.73174,156.13224 c 0.48692,-0.48692 0.55437,-2.41523 0.55437,-15.84981 0,-13.43457 -0.0674,-15.36288 -0.55437,-15.8498 -0.4441,-0.4441 -1.4207,-0.55436 -4.91003,-0.55436 -2.39562,0 -4.60678,0.0964 -4.91369,0.21413 -0.49748,0.1909 -0.55802,1.94827 -0.55802,16.19838 0,12.45732 0.0973,16.02351 0.44097,16.16218 0.24253,0.0979 2.4537,0.19047 4.91369,0.20579 3.62213,0.0225 4.57814,-0.0776 5.02708,-0.52651 z m 54.32413,0.34023 c 0.48289,-0.1853 0.55802,-1.15622 0.55802,-7.21112 0,-3.84835 0.14445,-7.08628 0.32102,-7.1954 0.17655,-0.10912 2.01236,2.85808 4.07956,6.59377 2.0672,3.73569 4.08346,7.06997 4.48057,7.40952 0.612,0.52329 1.4642,0.61736 5.59297,0.61736 4.73999,0 5.98699,-0.14495 5.98699,-0.69593 0,-0.14723 -2.24309,-4.29743 -4.98463,-9.22268 -2.74155,-4.92525 -5.13686,-9.28713 -5.32292,-9.69306 -0.27884,-0.60835 0.22518,-1.73315 2.86797,-6.40043 1.76343,-3.11431 3.20625,-5.82113 3.20625,-6.01517 0,-0.99642 -5.15045,-1.13022 -6.30155,-0.1637 -0.40439,0.33955 -2.61939,3.86337 -4.92221,7.83072 -2.30282,3.96734 -4.36931,7.27414 -4.5922,7.34844 -0.30079,0.10026 -0.42885,-4.44229 -0.49674,-17.6203 l -0.0915,-17.75539 -4.93594,-0.0987 c -4.33307,-0.0867 -4.99016,-0.0246 -5.37986,0.5084 -0.34688,0.47438 -0.44392,6.10097 -0.44392,25.73808 0,22.37599 0.0608,25.19176 0.55436,25.68536 0.4441,0.4441 1.42071,0.55436 4.91004,0.55436 2.39562,0 4.60678,-0.0964 4.91369,-0.21413 z m 72.31945,0 c 0.42694,-0.16384 0.55801,-0.735 0.55801,-2.4317 0,-2.52697 -0.12705,-2.64584 -2.82811,-2.64584 -2.15844,0 -3.35181,-0.44883 -3.94141,-1.48241 -0.36265,-0.63575 -0.50047,-5.6437 -0.63881,-23.21203 l -0.17639,-22.40139 -4.93593,-0.0987 c -4.33308,-0.0867 -4.99016,-0.0246 -5.37987,0.5084 -0.54305,0.74267 -0.64202,41.74757 -0.10861,45.00421 0.66243,4.04432 2.4273,6.02221 5.8925,6.6037 2.04227,0.34272 10.7651,0.46026 11.55862,0.15576 z m 15.17309,-0.34023 c 0.48693,-0.48692 0.55437,-2.41523 0.55437,-15.84981 0,-13.43457 -0.0674,-15.36288 -0.55437,-15.8498 -0.4441,-0.4441 -1.4207,-0.55436 -4.91003,-0.55436 -2.39562,0 -4.60678,0.0964 -4.91369,0.21413 -0.49748,0.1909 -0.55802,1.94827 -0.55802,16.19838 0,12.45732 0.0973,16.02351 0.44097,16.16218 0.24253,0.0979 2.4537,0.19047 4.91369,0.20579 3.62213,0.0225 4.57814,-0.0776 5.02708,-0.52651 z M 134.67607,196.10014 c 4.8688,-2.81563 2.93273,-10.33507 -2.68192,-10.41623 -2.44236,-0.0353 -4.19024,0.99822 -5.19368,3.07104 -0.92024,1.90098 -0.92214,3.1374 -0.008,5.02638 1.46373,3.02366 4.91106,4.03766 7.8833,2.31881 z m 141.81667,0 c 4.8688,-2.81563 2.93273,-10.33507 -2.68192,-10.41623 -2.44236,-0.0353 -4.19024,0.99822 -5.19367,3.07104 -0.92025,1.90098 -0.92215,3.1374 -0.008,5.02638 1.46372,3.02366 4.91105,4.03766 7.8833,2.31881 z"
         id="path871"
         inkscape:connector-curvature="0" />
      <path
         style="fill:#f53c83;stroke-width:71.1111145"
         d="M 46.34211,121.60249 V -19.50863 H 187.45322 328.56434 V 121.60249 262.7136 H 187.45322 46.34211 Z m 175.22758,128.32292 c 0.76023,-0.99716 19.5264,-45.10134 19.32745,-45.42326 -0.24835,-0.40183 -5.08572,-0.46952 -5.69448,-0.0797 -0.2226,0.14255 -1.64529,3.31512 -3.16154,7.05016 -1.51625,3.73503 -2.84481,6.79097 -2.95236,6.79097 -0.10754,0 -1.36454,-2.81781 -2.79332,-6.26181 -1.42878,-3.44399 -2.81894,-6.61899 -3.08924,-7.05555 -0.47652,-0.76963 -0.6631,-0.79375 -6.13885,-0.79375 -4.7036,0 -5.68144,0.0888 -5.85118,0.5311 -0.11253,0.29324 2.42035,6.28433 5.65552,13.37713 3.22262,7.06532 5.85931,13.08432 5.85931,13.37555 0,0.29123 -1.6861,4.42567 -3.7469,9.18764 -2.06693,4.77617 -3.65362,8.90122 -3.53885,9.2003 0.26967,0.70273 5.59871,0.79079 6.12444,0.1012 z m -51.28226,-12.63074 c 0.50657,-0.39846 1.09086,-1.31127 1.29844,-2.02847 0.24916,-0.8609 0.34195,-6.33857 0.27307,-16.12066 l -0.10433,-14.81666 -2.50254,-0.10254 c -1.78802,-0.0733 -2.61676,0.0351 -2.90258,0.37948 -0.26002,0.31331 -0.43366,2.88051 -0.49607,7.33449 l -0.096,6.85246 -3.52778,-5.76364 c -1.94028,-3.17 -4.04414,-6.37073 -4.67525,-7.11274 -3.02147,-3.55239 -8.38736,-3.79306 -10.56322,-0.47378 -0.58862,0.89795 -0.63653,2.1139 -0.63653,16.15643 v 15.18539 l 2.413,0.10504 c 1.47528,0.0642 2.60631,-0.0554 2.91042,-0.30778 0.40477,-0.33593 0.49741,-2.12708 0.49741,-9.61744 0,-7.76708 0.0747,-9.12395 0.47846,-8.68805 0.26316,0.28411 2.35217,3.61219 4.64225,7.39573 5.85383,9.67135 7.0428,11.29208 8.81401,12.01466 1.31535,0.53661 3.22456,0.35749 4.17727,-0.39192 z m 141.81668,0 c 0.50656,-0.39846 1.09086,-1.31127 1.29843,-2.02847 0.24916,-0.8609 0.34195,-6.33857 0.27307,-16.12066 l -0.10433,-14.81666 -2.50253,-0.10254 c -1.78803,-0.0733 -2.61677,0.0351 -2.90259,0.37948 -0.26002,0.31331 -0.43366,2.88051 -0.49607,7.33449 l -0.096,6.85246 -3.52778,-5.76364 c -1.94027,-3.17 -4.04413,-6.37073 -4.67524,-7.11274 -3.02148,-3.55239 -8.38737,-3.79306 -10.56323,-0.47378 -0.58862,0.89795 -0.63653,2.1139 -0.63653,16.15643 v 15.18539 l 2.41301,0.10504 c 1.47527,0.0642 2.60631,-0.0554 2.91041,-0.30778 0.40478,-0.33593 0.49742,-2.12708 0.49742,-9.61744 0,-7.76708 0.0747,-9.12395 0.47846,-8.68805 0.26315,0.28411 2.35217,3.61219 4.64225,7.39573 5.85382,9.67135 7.04279,11.29208 8.81401,12.01466 1.31534,0.53661 3.22456,0.35749 4.17727,-0.39192 z m -192.03144,-35.55524 0.17639,-35.75055 13.59222,0.0465 c 7.47572,0.0256 16.12759,-0.12341 19.22639,-0.33106 47.55019,-3.1864 75.01825,-20.30862 84.29737,-52.5468 2.45455,-8.5278 3.43922,-16.29415 3.44675,-27.18558 0.0109,-15.80617 -2.47227,-28.81855 -7.78648,-40.80227 -7.58727,-17.10958 -21.72179,-30.67935 -40.6332,-39.0097 -14.02835,-6.17939 -29.81307,-9.62585 -49.74166,-10.86065 -3.98854,-0.24714 -19.7211,-0.3445 -44.450005,-0.2751 l -38.276395,0.10744 -0.0903,120.82639 c -0.0496,66.45452 -0.0146,121.02573 0.0779,121.26936 0.13349,0.35161 6.33611,0.42437 30.076393,0.35278 l 29.908227,-0.0902 z m 0.16928,-60.80588 c -0.0957,-0.2516 -0.13325,-27.68308 -0.0834,-60.95884 l 0.0905,-60.50139 3.35139,0.0995 c 7.08786,0.21045 15.05506,1.48178 20.78225,3.31623 17.7384,5.68171 26.53194,17.36979 30.07593,39.97592 1.01575,6.4792 1.30311,23.55064 0.52058,30.92637 -3.42021,32.23714 -17.53958,45.36954 -50.94254,47.38156 -2.80007,0.16866 -3.66015,0.11441 -3.79471,-0.23936 z m 16.94044,79.6231 v -16.22777 l -5.06717,-0.0981 c -3.43601,-0.0665 -5.2246,0.0325 -5.55625,0.30778 -0.67684,0.56173 -0.73142,31.33328 -0.0568,32.00793 0.31104,0.31104 1.86973,0.40505 5.55625,0.33514 l 5.12395,-0.0972 z m 54.45314,15.93649 c 0.24507,-0.29529 0.42354,-2.99359 0.48417,-7.32014 l 0.096,-6.85246 3.3277,5.99723 c 1.83023,3.29847 3.70001,6.59644 4.15505,7.32883 l 0.82735,1.3316 5.72273,-0.0969 c 5.5389,-0.0938 5.72203,-0.12047 5.70111,-0.83109 -0.0119,-0.40381 -2.27407,-4.80407 -5.02708,-9.77834 -2.75301,-4.97427 -5.00547,-9.27317 -5.00547,-9.55309 0,-0.27993 1.45067,-3.07295 3.22371,-6.2067 2.10381,-3.71837 3.1037,-5.81776 2.87823,-6.04323 -0.19029,-0.19028 -1.75731,-0.29933 -3.4883,-0.24274 l -3.14281,0.10275 -1.9843,3.35139 c -1.09137,1.84326 -3.15512,5.33576 -4.58611,7.76111 l -2.60181,4.40972 -0.18464,-17.63889 c -0.10155,-9.70139 -0.22061,-17.68271 -0.26458,-17.73627 -0.044,-0.0536 -2.50089,-0.0536 -5.45981,0 l -5.37986,0.0974 -0.0913,25.75278 c -0.0502,14.16403 -0.0155,25.95121 0.0771,26.19375 0.24811,0.64979 10.18191,0.62505 10.72282,-0.0267 z m 72.29992,0.0444 c 0.5619,-0.56191 0.54829,-3.97719 -0.0176,-4.42646 -0.24254,-0.19254 -1.53102,-0.43331 -2.86329,-0.53504 -4.29139,-0.32768 -3.89746,2.00407 -4.11302,-24.34627 -0.10194,-12.46102 -0.22101,-22.70022 -0.26459,-22.75378 -0.0436,-0.0536 -2.50018,-0.0536 -5.4591,0 l -5.37986,0.0974 -0.0928,22.40139 c -0.0635,15.32024 0.0303,22.99778 0.29678,24.2881 0.50833,2.46156 2.25203,4.44985 4.51299,5.14603 2.13164,0.65636 12.75075,0.75846 13.38056,0.12865 z m 15.06361,-15.98089 v -16.22777 l -5.06717,-0.0981 c -3.43601,-0.0665 -5.2246,0.0325 -5.55625,0.30778 -0.67684,0.56173 -0.73142,31.33328 -0.0568,32.00793 0.31104,0.31104 1.86973,0.40505 5.55625,0.33514 l 5.12395,-0.0972 z M 135.18498,196.07928 c 1.40355,-0.99942 2.52658,-3.13436 2.52658,-4.80318 0,-1.66883 -1.12303,-3.80377 -2.52658,-4.80319 -1.7102,-1.21777 -4.68376,-1.33451 -6.28447,-0.24672 -1.93202,1.31292 -2.83062,2.91606 -2.83062,5.04991 0,2.13385 0.8986,3.73698 2.83062,5.04991 1.60071,1.08778 4.57427,0.97104 6.28447,-0.24673 z m 141.81667,0 c 1.40355,-0.99942 2.52658,-3.13436 2.52658,-4.80318 0,-1.66883 -1.12303,-3.80377 -2.52658,-4.80319 -1.7102,-1.21777 -4.68376,-1.33451 -6.28447,-0.24672 -1.93202,1.31292 -2.83062,2.91606 -2.83062,5.04991 0,2.13385 0.8986,3.73698 2.83062,5.04991 1.60071,1.08778 4.57427,0.97104 6.28447,-0.24673 z"
         id="path869"
         inkscape:connector-curvature="0" />
      <path
         style="fill:#f42b78;stroke-width:71.1111145"
         d="M 46.34211,121.60249 V -19.50863 H 187.45322 328.56434 V 121.60249 262.7136 H 187.45322 46.34211 Z m 176.83708,125.14792 c 7.13753,-16.31263 17.89626,-41.58485 17.89626,-42.03825 0,-0.46651 -0.49196,-0.55967 -2.95542,-0.55967 -1.94757,0 -3.07152,0.15038 -3.29587,0.44097 -0.18725,0.24253 -1.51097,3.33816 -2.9416,6.87917 -1.43062,3.541 -2.68859,6.43819 -2.79548,6.43819 -0.10689,0 -1.47293,-3.05594 -3.03564,-6.79097 l -2.8413,-6.79097 -5.94576,-0.097 c -3.27017,-0.0534 -6.09018,0.0474 -6.2667,0.22394 -0.19272,0.19273 2.10367,5.63676 5.74855,13.62798 l 6.06948,13.30704 -3.94208,9.13767 c -2.16814,5.02572 -3.8447,9.29521 -3.7257,9.48777 0.11901,0.19256 1.61874,0.35011 3.33274,0.35011 h 3.11637 z m -52.78641,-9.24637 c 1.49586,-1.04775 1.55261,-1.74306 1.45497,-17.82933 l -0.0931,-15.34583 h -2.82222 -2.82222 l -0.17639,7.04144 c -0.16591,6.62297 -0.21005,6.98987 -0.74282,6.17361 -0.31153,-0.47731 -1.87557,-3.01096 -3.47564,-5.63033 -2.94562,-4.82209 -5.05535,-7.4074 -6.78833,-8.31858 -1.41371,-0.7433 -5.15084,-0.64857 -6.48395,0.16436 -2.26366,1.38038 -2.28253,1.53699 -2.18047,18.09343 l 0.092,14.93162 h 2.82222 2.82222 l 0.094,-9.26041 c 0.0517,-5.09323 0.21048,-9.25463 0.35278,-9.24754 0.1423,0.007 2.40185,3.59918 5.02123,7.98245 2.99429,5.01066 5.43879,8.67327 6.58402,9.86491 1.75872,1.82996 1.88678,1.89531 3.71387,1.89531 1.08818,0 2.20487,-0.2189 2.62777,-0.51511 z m 141.81667,0 c 1.49586,-1.04775 1.55261,-1.74306 1.45497,-17.82933 l -0.0931,-15.34583 h -2.82222 -2.82222 l -0.17639,7.04144 c -0.16591,6.62297 -0.21005,6.98987 -0.74282,6.17361 -0.31153,-0.47731 -1.87557,-3.01096 -3.47564,-5.63033 -2.94562,-4.82209 -5.05534,-7.4074 -6.78833,-8.31858 -1.4137,-0.7433 -5.15083,-0.64857 -6.48395,0.16436 -2.26365,1.38038 -2.28253,1.53699 -2.18047,18.09343 l 0.092,14.93162 h 2.82223 2.82222 l 0.094,-9.26041 c 0.0517,-5.09323 0.21048,-9.25463 0.35278,-9.24754 0.1423,0.007 2.40185,3.59918 5.02122,7.98245 2.9943,5.01066 5.4388,8.67327 6.58403,9.86491 1.75872,1.82996 1.88677,1.89531 3.71386,1.89531 1.08819,0 2.20487,-0.2189 2.62778,-0.51511 z m -191.99814,-0.39568 c 0.11778,-0.30691 0.21413,-16.3966 0.21413,-35.75486 v -35.19684 l 14.3757,0.0113 c 14.7315,0.0116 20.76651,-0.29399 30.77986,-1.55863 20.17317,-2.54777 36.59759,-8.37166 48.69888,-17.26801 4.01967,-2.95509 10.91934,-9.98894 13.82828,-14.09719 7.88984,-11.14272 12.19762,-25.77865 12.82335,-43.56805 0.61056,-17.35779 -2.35177,-33.16732 -8.67484,-46.2965 -4.08082,-8.4734 -8.55868,-14.67392 -15.25078,-21.11786 -6.4157,-6.1778 -12.84133,-10.58117 -21.61517,-14.81248 -10.38237,-5.00705 -19.92803,-7.91563 -33.43278,-10.18701 -13.25191,-2.22885 -23.88743,-2.6389 -68.75938,-2.65097 -29.25989,-0.008 -32.75319,0.0495 -33.24931,0.54557 -0.5018,0.5018 -0.55436,11.97196 -0.55436,120.97392 0,66.23076 0.0964,120.67068 0.21413,120.97759 0.19294,0.5028 3.19116,0.55802 30.301147,0.55802 27.109983,0 30.108203,-0.0552 30.301143,-0.55802 z M 120.42544,80.32728 V 19.54089 l 4.69047,0.21202 c 8.01303,0.36219 15.97725,1.91711 22.29389,4.3526 16.07523,6.1981 24.12536,18.28597 27.22219,40.87614 0.88843,6.48078 0.89166,24.86205 0.005,31.22083 -1.71942,12.33767 -4.82501,21.18233 -9.78788,27.87576 -7.47885,10.08672 -21.3599,15.98467 -39.57345,16.81445 l -4.85068,0.22099 z m 16.75695,140.22937 v -16.22777 h -5.46806 -5.46805 l -0.092,15.875 c -0.0506,8.73125 -0.0143,16.07759 0.0807,16.3252 0.13189,0.34392 1.44443,0.4272 5.56004,0.35278 l 5.38739,-0.0974 z m 54.85695,9.17223 0.17638,-7.05556 1.7968,3.175 c 0.98824,1.74625 2.78804,4.96094 3.99956,7.14375 l 2.20276,3.96875 h 5.94559 c 3.75156,0 6.02963,-0.13596 6.1733,-0.36843 0.12523,-0.20263 -2.16727,-4.71067 -5.09446,-10.01785 -2.92719,-5.30718 -5.32216,-9.74491 -5.32216,-9.86162 0,-0.11671 1.42875,-2.73543 3.175,-5.81939 1.74625,-3.08395 3.175,-5.86231 3.175,-6.17411 0,-0.48268 -0.52082,-0.56693 -3.50442,-0.56693 h -3.50442 l -4.30021,7.41441 c -2.36511,4.07792 -4.43937,7.50041 -4.60946,7.60554 -0.17555,0.1085 -0.30926,-7.26098 -0.30926,-17.04524 0,-12.9357 -0.10563,-17.34201 -0.42334,-17.65971 -0.4456,-0.44561 -9.22702,-0.62384 -10.30753,-0.2092 -0.50186,0.19258 -0.55802,2.83176 -0.55802,26.22314 0,14.30496 0.1098,26.11882 0.24401,26.25303 0.1342,0.13421 2.63451,0.20035 5.55625,0.14699 l 5.31224,-0.097 z m 72.14305,4.5926 v -2.46296 l -2.88313,-0.40978 c -1.58573,-0.22538 -3.04829,-0.51185 -3.25013,-0.6366 -0.96456,-0.59612 -1.0948,-3.49209 -1.09671,-24.38424 -0.001,-16.27846 -0.10534,-21.64044 -0.4253,-21.96041 -0.44561,-0.44561 -9.22703,-0.62384 -10.30754,-0.2092 -0.50092,0.19221 -0.55802,2.5589 -0.55802,23.12711 0,15.59896 0.12481,23.40864 0.39099,24.46574 0.21504,0.85402 0.88973,2.12315 1.4993,2.82029 1.75621,2.00849 3.01907,2.27748 10.28054,2.18974 l 6.35,-0.0767 z m 14.81667,-13.76483 v -16.22777 h -5.46806 -5.46805 l -0.092,15.875 c -0.0506,8.73125 -0.0143,16.07759 0.0807,16.3252 0.13189,0.34392 1.44443,0.4272 5.56004,0.35278 l 5.38739,-0.0974 z m -144.0821,-24.26186 c 2.75239,-1.85484 3.62572,-5.22493 2.06516,-7.96927 -1.1212,-1.97171 -2.28578,-2.65025 -4.82624,-2.81202 -1.93914,-0.12347 -2.3984,-0.0243 -3.61468,0.7806 -1.78168,1.17906 -2.60404,2.75238 -2.60404,4.982 0,3.51812 2.29719,5.82083 5.8069,5.82083 1.478,0 2.28555,-0.20415 3.1729,-0.80214 z m 141.81667,0 c 2.75239,-1.85484 3.62572,-5.22493 2.06517,-7.96927 -1.12121,-1.97171 -2.28579,-2.65025 -4.82624,-2.81202 -1.93915,-0.12347 -2.39841,-0.0243 -3.61469,0.7806 -1.78168,1.17906 -2.60404,2.75238 -2.60404,4.982 0,3.51812 2.2972,5.82083 5.8069,5.82083 1.478,0 2.28555,-0.20415 3.1729,-0.80214 z"
         id="path867"
         inkscape:connector-curvature="0" />
      <path
         style="fill:#f4176c;stroke-width:71.1111145"
         d="M 46.34211,121.60249 V -19.50863 H 187.45322 328.56434 V 121.60249 262.7136 H 187.45322 46.34211 Z m 175.20648,128.84668 c 0.2228,-0.14255 4.7996,-10.46695 10.17067,-22.9431 7.90824,-18.36965 9.68487,-22.78115 9.34129,-23.19514 -0.55358,-0.66703 -5.72204,-0.72508 -6.25449,-0.0702 -0.19721,0.24254 -1.50747,3.25879 -2.91168,6.70278 -1.40421,3.44399 -2.66763,6.26181 -2.80761,6.26181 -0.13998,0 -1.49091,-2.93947 -3.00207,-6.53215 -2.14932,-5.10985 -2.90957,-6.57208 -3.4916,-6.71556 -0.40922,-0.10089 -3.20467,-0.13799 -6.2121,-0.0824 -5.16049,0.0953 -5.47365,0.14067 -5.56757,0.80653 -0.0547,0.38806 2.52495,6.45249 5.73264,13.47651 3.20769,7.02402 5.83216,12.99065 5.83216,13.25917 0,0.26853 -1.66688,4.33559 -3.70417,9.03792 -3.54045,8.17181 -3.99932,9.49839 -3.46898,10.02872 0.31966,0.31966 5.8368,0.2894 6.34351,-0.0348 z m -51.40768,-12.59285 c 2.05412,-1.06223 2.14287,-1.81991 2.14287,-18.29458 0,-11.13047 -0.10742,-15.02279 -0.42333,-15.3387 -0.59794,-0.59793 -5.3722,-0.56225 -5.87528,0.0439 -0.24211,0.29173 -0.42398,2.88435 -0.48416,6.90195 l -0.0964,6.4347 -3.17488,-5.22625 c -3.57176,-5.87955 -5.35217,-8.03667 -7.40846,-8.97592 -2.9748,-1.35881 -6.69849,-0.50336 -8.11389,1.86401 -0.67115,1.12256 -0.71056,1.90854 -0.80827,16.11951 -0.0755,10.97443 0.006,15.07068 0.30778,15.43403 0.55591,0.66983 5.36704,0.69022 5.91906,0.0251 0.25545,-0.3078 0.42223,-3.49759 0.48417,-9.26041 l 0.0945,-8.79088 4.71235,7.76111 c 5.22369,8.60328 6.7018,10.61622 8.30955,11.31621 1.4407,0.62726 3.18529,0.62182 4.41439,-0.0138 z m 141.81667,0 c 2.05412,-1.06223 2.14287,-1.81991 2.14287,-18.29458 0,-11.13047 -0.10742,-15.02279 -0.42333,-15.3387 -0.59794,-0.59793 -5.3722,-0.56225 -5.87528,0.0439 -0.24211,0.29173 -0.42398,2.88435 -0.48416,6.90195 l -0.0964,6.4347 -3.17488,-5.22625 c -3.57175,-5.87955 -5.35216,-8.03667 -7.40845,-8.97592 -2.9748,-1.35881 -6.69849,-0.50336 -8.11389,1.86401 -0.67115,1.12256 -0.71056,1.90854 -0.80827,16.11951 -0.0755,10.97443 0.006,15.07068 0.30777,15.43403 0.55592,0.66983 5.36705,0.69022 5.91907,0.0251 0.25545,-0.3078 0.42222,-3.49759 0.48417,-9.26041 l 0.0945,-8.79088 4.71235,7.76111 c 5.2237,8.60328 6.70181,10.61622 8.30956,11.31621 1.4407,0.62726 3.18529,0.62182 4.41439,-0.0138 z m -191.9748,-0.12692 c 0.34477,-0.21894 0.45861,-7.91857 0.52916,-35.79128 l 0.0899,-35.51233 16.75695,-0.14275 c 16.88616,-0.14384 21.41684,-0.41038 31.20764,-1.83593 19.97825,-2.90884 36.53998,-9.35978 48.19346,-18.77177 17.33711,-14.00239 25.92735,-37.35455 24.29816,-66.05341 -0.19276,-3.39549 -0.66297,-8.31674 -1.04493,-10.93611 C 234.06757,27.91182 205.77504,3.04726 157.76862,-3.59381 146.31698,-5.178 144.81773,-5.22113 101.19905,-5.22113 H 59.57128 l -0.0887,121.33442 c -0.0708,96.83495 4.3e-4,121.39103 0.35278,121.61475 0.57564,0.36549 59.5719,0.36683 60.14742,0.001 z m 0.61581,-97.13856 c -0.0978,-0.25714 -0.13711,-27.5344 -0.0873,-60.61613 l 0.0906,-60.14862 3.35139,0.0995 c 12.44079,0.3694 23.97084,3.49627 31.75,8.61041 3.19309,2.09918 7.71022,6.52808 9.7467,9.55632 4.34838,6.46603 6.94452,13.89243 8.66008,24.77265 1.01631,6.44554 1.30045,23.50574 0.51509,30.92637 -2.60778,24.63972 -11.39502,37.52758 -29.66855,43.51355 -5.62604,1.84295 -12.03517,2.92486 -20.91601,3.53077 -2.54442,0.1736 -3.30329,0.11962 -3.44194,-0.24483 z m 16.68963,96.29943 c 0.60929,-0.60929 0.60929,-32.05794 0,-32.66723 -0.29059,-0.29059 -2.03827,-0.42333 -5.57389,-0.42333 -3.53561,0 -5.28329,0.13274 -5.57388,0.42333 -0.60929,0.60929 -0.60929,32.05794 0,32.66723 0.29059,0.29059 2.03827,0.42333 5.57388,0.42333 3.53562,0 5.2833,-0.13274 5.57389,-0.42333 z m 54.69972,-0.0439 c 0.2418,-0.29135 0.42407,-2.87084 0.48417,-6.85216 l 0.0964,-6.38491 3.70417,6.68916 c 2.52468,4.55921 3.92883,6.74514 4.40972,6.86495 0.38805,0.0967 3.16618,0.13033 6.17361,0.0748 5.19888,-0.096 5.47313,-0.13645 5.57121,-0.82162 0.0592,-0.41394 -2.08029,-4.66482 -5.02709,-9.98792 -2.82163,-5.097 -5.13002,-9.45584 -5.12976,-9.6863 2.7e-4,-0.23047 1.4288,-2.95903 3.17453,-6.06347 1.74572,-3.10445 3.17426,-5.8259 3.17452,-6.04768 7.1e-4,-0.64376 -0.91589,-0.83149 -4.06012,-0.83149 -2.03099,0 -3.09537,0.15081 -3.43063,0.48607 -0.26734,0.26734 -2.30274,3.62922 -4.52312,7.47085 l -4.03704,6.98477 -0.1848,-17.26043 c -0.10163,-9.49323 -0.22069,-17.30012 -0.26458,-17.34862 -0.0439,-0.0485 -2.6028,-0.0882 -5.68649,-0.0882 -4.78714,0 -5.638,0.0816 -5.82083,0.55802 -0.11778,0.30691 -0.21413,12.10204 -0.21413,26.21139 0,19.48225 0.10183,25.75521 0.42333,26.07671 0.62823,0.62822 10.64179,0.58885 11.16694,-0.0439 z m 72.30029,0.0439 c 0.23672,-0.23673 0.42333,-1.37192 0.42333,-2.57528 0,-1.20337 -0.18661,-2.33855 -0.42333,-2.57528 -0.23284,-0.23283 -1.24102,-0.42333 -2.24042,-0.42333 -2.43018,0 -4.01365,-0.59286 -4.417,-1.65376 -0.18878,-0.49653 -0.32758,-10.10751 -0.32758,-22.68202 0,-12.00122 -0.0964,-22.07152 -0.21414,-22.37843 -0.18281,-0.47641 -1.03309,-0.55802 -5.81411,-0.55802 -5.51374,0 -5.60302,0.0122 -5.79727,0.79375 -0.10851,0.43657 -0.15122,11.1125 -0.0949,23.72431 0.10029,22.46336 0.1175,22.9629 0.84491,24.51806 1.61955,3.46252 3.6969,4.20583 11.79872,4.22181 4.08436,0.008 5.96566,-0.11567 6.2618,-0.41181 z m 14.81666,0 c 0.60929,-0.60929 0.60929,-32.05794 0,-32.66723 -0.29059,-0.29059 -2.03827,-0.42333 -5.57389,-0.42333 -3.53561,0 -5.28329,0.13274 -5.57388,0.42333 -0.60929,0.60929 -0.60929,32.05794 0,32.66723 0.29059,0.29059 2.03827,0.42333 5.57388,0.42333 3.53562,0 5.2833,-0.13274 5.57389,-0.42333 z M 134.28881,196.97309 c 1.72308,-0.71995 3.33581,-2.7597 3.60588,-4.56066 0.80503,-5.36829 -4.60725,-9.12585 -9.23676,-6.41278 -3.91942,2.29693 -3.93889,8.2023 -0.0348,10.54219 1.70568,1.02227 3.85887,1.18617 5.66564,0.43125 z m 141.81668,0 c 1.72307,-0.71995 3.3358,-2.7597 3.60587,-4.56066 0.80503,-5.36829 -4.60725,-9.12585 -9.23676,-6.41278 -3.91942,2.29693 -3.93889,8.2023 -0.0348,10.54219 1.70568,1.02227 3.85887,1.18617 5.66564,0.43125 z"
         id="path865"
         inkscape:connector-curvature="0" />
    </g>
    <circle
       style="opacity:1;fill:#f4176c;fill-opacity:1;stroke:none;stroke-width:1;stroke-miterlimit:4;stroke-dasharray:none"
       id="path899"
       cx="-2.869951"
       cy="294.35416"
       r="2.6458333" />
  </g>
</svg>
